<svg xmlns="http://www.w3.org/2000/svg" version="1.1" xmlns:xlink="http://www.w3.org/1999/xlink" xmlns:svgjs="http://svgjs.com/svgjs" width="283.88" height="385.02"><svg xmlns="http://www.w3.org/2000/svg" viewBox="0 0 283.88 385.02"><defs><style>.cls-1{fill:#1d1d1b;}</style></defs><g id="SvgjsG1001" data-name="Lag 2"><g id="SvgjsG1000" data-name="Lag 1"><path class="cls-1" d="M134,12.22a85.13,85.13,0,0,1,31.69,34Q177.18,68,177.17,95.84q0,27.5-11.26,49.07A84.5,84.5,0,0,1,134.6,178.7Q114.55,190.93,89,190.92a75.06,75.06,0,0,1-35.7-8.59A77.66,77.66,0,0,1,26,158.08v103.1H0V6.11H26V32.46A79.75,79.75,0,0,1,53.08,8.59,73.15,73.15,0,0,1,88.21,0Q113.79,0,134,12.22ZM121,158.08a62.53,62.53,0,0,0,22.15-25.39q8-16.23,8-36.85,0-21-8-37.42A62.32,62.32,0,0,0,121,32.84,57.64,57.64,0,0,0,89,23.67a59.26,59.26,0,0,0-32.65,9.17A61.87,61.87,0,0,0,34,58.42q-8,16.42-8,37t8,37a61.81,61.81,0,0,0,22.34,25.58A59.26,59.26,0,0,0,89,167.25,57.64,57.64,0,0,0,121,158.08Z"></path><path class="cls-1" d="M149.85,372.8a85.09,85.09,0,0,1-31.69-34Q106.7,317,106.7,289.17q0-27.48,11.27-49.06a84.45,84.45,0,0,1,31.31-33.8q20-12.21,45.63-12.21a75.09,75.09,0,0,1,35.7,8.59,77.6,77.6,0,0,1,27.3,24.24V123.84h26V378.91h-26V352.56a79.58,79.58,0,0,1-27.11,23.86,73.18,73.18,0,0,1-35.13,8.6Q170.1,385,149.85,372.8Zm13-145.87a62.48,62.48,0,0,0-22.14,25.4q-8,16.21-8,36.84,0,21,8,37.42a62.26,62.26,0,0,0,22.14,25.59,57.66,57.66,0,0,0,32.08,9.16q18.33,0,32.65-9.16a61.75,61.75,0,0,0,22.33-25.59q8-16.41,8-37t-8-37a61.75,61.75,0,0,0-22.33-25.59q-14.33-9.17-32.65-9.16A57.66,57.66,0,0,0,162.83,226.93Z"></path></g></g></svg><style>@media (prefers-color-scheme: light) { :root { filter: none; } }
</style></svg>