<svg xmlns="http://www.w3.org/2000/svg" viewBox="0 0 577.99 657.04"><defs><style>.cls-1{fill:#1d1d1b;}</style></defs><g id="Lag_2" data-name="Lag 2"><g id="Lag_1-2" data-name="Lag 1"><path class="cls-1" d="M275.29,12.22A85.06,85.06,0,0,1,307,46.2Q318.44,68,318.44,95.84q0,27.5-11.27,49.07a84.43,84.43,0,0,1-31.31,33.79q-20,12.23-45.63,12.22a75.09,75.09,0,0,1-35.7-8.59,77.63,77.63,0,0,1-27.3-24.25v103.1h-26V6.11h26V32.46A79.71,79.71,0,0,1,194.34,8.59,73.18,73.18,0,0,1,229.47,0Q255,0,275.29,12.22Zm-13,145.86a62.61,62.61,0,0,0,22.15-25.39q8-16.23,8-36.85,0-21-8-37.42a62.39,62.39,0,0,0-22.15-25.58,57.65,57.65,0,0,0-32.08-9.17,59.21,59.21,0,0,0-32.64,9.17,61.73,61.73,0,0,0-22.34,25.58q-8,16.42-8,37t8,37a61.67,61.67,0,0,0,22.34,25.58,59.21,59.21,0,0,0,32.64,9.17A57.65,57.65,0,0,0,262.31,158.08Z"/><path class="cls-1" d="M291.12,372.8a85.18,85.18,0,0,1-31.7-34Q248,317,248,289.17q0-27.48,11.26-49.06a84.52,84.52,0,0,1,31.31-33.8q20.06-12.21,45.63-12.21a75.1,75.1,0,0,1,35.71,8.59,77.6,77.6,0,0,1,27.3,24.24V123.84h26V378.91h-26V352.56a79.58,79.58,0,0,1-27.11,23.86,73.21,73.21,0,0,1-35.13,8.6Q311.37,385,291.12,372.8Zm13-145.87A62.5,62.5,0,0,0,282,252.33q-8,16.21-8,36.84,0,21,8,37.42a62.28,62.28,0,0,0,22.15,25.59,57.63,57.63,0,0,0,32.07,9.16q18.33,0,32.65-9.16a61.77,61.77,0,0,0,22.34-25.59q8-16.41,8-37t-8-37a61.77,61.77,0,0,0-22.34-25.59q-14.32-9.17-32.65-9.16A57.63,57.63,0,0,0,304.1,226.93Z"/><path class="cls-1" d="M71.21,577.39A18.41,18.41,0,0,1,78,584.71a24.4,24.4,0,0,1,0,21.27,18.25,18.25,0,0,1-6.75,7.28,18.54,18.54,0,0,1-9.83,2.63A16.24,16.24,0,0,1,53.81,614a16.79,16.79,0,0,1-5.88-5.23V631H42.34V576.08h5.59v5.67a17.18,17.18,0,0,1,5.84-5.14,15.82,15.82,0,0,1,7.57-1.85A18.78,18.78,0,0,1,71.21,577.39Zm-2.8,31.42a13.35,13.35,0,0,0,4.77-5.47,17.67,17.67,0,0,0,1.73-7.93,18.19,18.19,0,0,0-1.73-8.07,13.46,13.46,0,0,0-4.77-5.51,12.46,12.46,0,0,0-6.91-2,12.81,12.81,0,0,0-7,2,13.34,13.34,0,0,0-4.81,5.51,19.27,19.27,0,0,0,0,16,13.21,13.21,0,0,0,4.81,5.51,12.74,12.74,0,0,0,7,2A12.39,12.39,0,0,0,68.41,608.81Z"/><path class="cls-1" d="M88.81,614.57V554.85H94.4v59.72Z"/><path class="cls-1" d="M140.88,576.08v38.49h-5.59V608.9a17.38,17.38,0,0,1-5.84,5.14,15.85,15.85,0,0,1-7.57,1.85,18.73,18.73,0,0,1-9.87-2.63,18.34,18.34,0,0,1-6.83-7.32,24.31,24.31,0,0,1,0-21.27,18.22,18.22,0,0,1,6.74-7.28,18.56,18.56,0,0,1,9.83-2.63,16.21,16.21,0,0,1,7.69,1.85,16.88,16.88,0,0,1,5.89,5.22v-5.75Zm-12.13,32.73a13.28,13.28,0,0,0,4.81-5.51,19.27,19.27,0,0,0,0-16,13.41,13.41,0,0,0-4.81-5.51,12.82,12.82,0,0,0-7-2,12.48,12.48,0,0,0-6.91,2A13.48,13.48,0,0,0,110,587.3a17.74,17.74,0,0,0-1.72,7.94A18.12,18.12,0,0,0,110,603.3a13.34,13.34,0,0,0,4.77,5.51,12.41,12.41,0,0,0,6.91,2A12.75,12.75,0,0,0,128.75,608.81Z"/><path class="cls-1" d="M187,554.85v59.72h-5.6V608.9a17.29,17.29,0,0,1-5.84,5.14,15.79,15.79,0,0,1-7.57,1.85,18.78,18.78,0,0,1-9.87-2.63,18.39,18.39,0,0,1-6.82-7.32,24.35,24.35,0,0,1-.05-21.27,18.25,18.25,0,0,1,6.75-7.28,18.54,18.54,0,0,1,9.83-2.63,16.21,16.21,0,0,1,7.69,1.85,16.76,16.76,0,0,1,5.88,5.22v-27Zm-12.14,54a13.21,13.21,0,0,0,4.81-5.51,19.27,19.27,0,0,0,0-16,13.34,13.34,0,0,0-4.81-5.51,12.79,12.79,0,0,0-7-2,12.46,12.46,0,0,0-6.91,2,13.48,13.48,0,0,0-4.77,5.47,17.75,17.75,0,0,0-1.73,7.94,18.12,18.12,0,0,0,1.73,8.06,13.34,13.34,0,0,0,4.77,5.51,12.39,12.39,0,0,0,6.91,2A12.72,12.72,0,0,0,174.89,608.81Z"/><path class="cls-1" d="M223.38,577.31a18,18,0,0,1,6.58,7,20.28,20.28,0,0,1,2.39,9.83c0,1,0,1.84-.08,2.39H200.6a16.65,16.65,0,0,0,3.86,10.11,11.93,11.93,0,0,0,9.63,4.2,16.39,16.39,0,0,0,8.18-1.85,14.31,14.31,0,0,0,5.23-5.14l4.44,3a19.35,19.35,0,0,1-7.16,6.7,21.61,21.61,0,0,1-10.53,2.43,18.89,18.89,0,0,1-9.95-2.63,18.41,18.41,0,0,1-6.83-7.32,24.22,24.22,0,0,1,0-21.23,18.27,18.27,0,0,1,6.74-7.32,18.56,18.56,0,0,1,9.83-2.63A17.68,17.68,0,0,1,223.38,577.31Zm3.37,14.56q-.81-6-4-9t-8.72-3a11.89,11.89,0,0,0-8.76,3.41,15.63,15.63,0,0,0-4.31,8.6Z"/><path class="cls-1" d="M287.87,577.39a18.41,18.41,0,0,1,6.83,7.32,24.31,24.31,0,0,1,0,21.27,18.29,18.29,0,0,1-6.74,7.28,18.56,18.56,0,0,1-9.83,2.63,16.25,16.25,0,0,1-7.7-1.85,16.79,16.79,0,0,1-5.88-5.23V631H259V576.08h5.59v5.67a17.18,17.18,0,0,1,5.84-5.14,15.85,15.85,0,0,1,7.57-1.85A18.78,18.78,0,0,1,287.87,577.39Zm-2.8,31.42a13.44,13.44,0,0,0,4.78-5.47,17.67,17.67,0,0,0,1.72-7.93,18.19,18.19,0,0,0-1.72-8.07,13.56,13.56,0,0,0-4.78-5.51,12.45,12.45,0,0,0-6.9-2,12.82,12.82,0,0,0-7,2,13.41,13.41,0,0,0-4.81,5.51,19.27,19.27,0,0,0,0,16,13.28,13.28,0,0,0,4.81,5.51,12.75,12.75,0,0,0,7,2A12.38,12.38,0,0,0,285.07,608.81Z"/><path class="cls-1" d="M338.87,576.08v38.49h-5.59v-6.41a14.7,14.7,0,0,1-5.23,5.71,13.9,13.9,0,0,1-7.52,2,16.91,16.91,0,0,1-7.45-1.65,12.92,12.92,0,0,1-5.43-4.85,14,14,0,0,1-2-7.57V576.08h5.59v23.27q0,11.45,10.2,11.44,5.93,0,8.89-4.2t3-11.27V576.08Z"/><path class="cls-1" d="M353,613.5a15.74,15.74,0,0,1-6.46-6.74l5-2.47q3,6.5,11.93,6.5a14.39,14.39,0,0,0,7.07-1.56,5.21,5.21,0,0,0,2.8-4.86,5.8,5.8,0,0,0-2.27-5c-1.51-1.09-4.15-1.81-7.93-2.13q-7.9-.66-11.31-3.54a9.5,9.5,0,0,1-3.42-7.65,9.86,9.86,0,0,1,3.87-8.31q3.86-3,10.61-3,11.43,0,15.55,9l-5,2.47a9.89,9.89,0,0,0-4.07-4.86,13.54,13.54,0,0,0-6.87-1.56,11.49,11.49,0,0,0-6.54,1.56,5.35,5.35,0,0,0,.16,8.84q2.43,1.69,8.35,2.19c4.88.43,8.52,1.63,10.9,3.57a9.43,9.43,0,0,1,3.58,7.69,10.25,10.25,0,0,1-2.22,6.63,13.64,13.64,0,0,1-5.92,4.15,22.46,22.46,0,0,1-8,1.4A19.69,19.69,0,0,1,353,613.5Z"/><path class="cls-1" d="M413.19,576.4a13,13,0,0,1,5.43,4.86,14,14,0,0,1,2,7.57v25.74H415V591.29q0-11.43-10.2-11.43-5.93,0-8.88,4.19t-3,11.27v19.25H387.4V554.85H393v27.64a14.73,14.73,0,0,1,5.23-5.72,14,14,0,0,1,7.52-2A17,17,0,0,1,413.19,576.4Z"/><path class="cls-1" d="M457.32,577.31a18,18,0,0,1,6.58,7,20.28,20.28,0,0,1,2.39,9.83,23.77,23.77,0,0,1-.09,2.39H434.53a16.66,16.66,0,0,0,3.87,10.11,11.93,11.93,0,0,0,9.62,4.2,16.43,16.43,0,0,0,8.19-1.85,14.29,14.29,0,0,0,5.22-5.14l4.44,3a19.32,19.32,0,0,1-7.15,6.7,21.61,21.61,0,0,1-10.53,2.43,18.89,18.89,0,0,1-9.95-2.63,18.34,18.34,0,0,1-6.83-7.32,22.42,22.42,0,0,1-2.47-10.62,22.75,22.75,0,0,1,2.43-10.61,18.13,18.13,0,0,1,6.74-7.32,18.56,18.56,0,0,1,9.83-2.63A17.7,17.7,0,0,1,457.32,577.31Zm3.37,14.56q-.82-6-4-9c-2.14-2-5-3-8.72-3a11.89,11.89,0,0,0-8.76,3.41,15.71,15.71,0,0,0-4.32,8.6Z"/><path class="cls-1" d="M497.21,575.33v5.11a8.65,8.65,0,0,0-3.78-.83,11.83,11.83,0,0,0-6.58,2A13.94,13.94,0,0,0,482,587.3a19.7,19.7,0,0,0-1.86,8.85v18.42h-5.59V576.08h5.59v7.73a18.27,18.27,0,0,1,5.64-6.67,13.09,13.09,0,0,1,7.69-2.38A12.45,12.45,0,0,1,497.21,575.33Z"/><path class="cls-1" d="M527.57,577.31a18.1,18.1,0,0,1,6.58,7,20.28,20.28,0,0,1,2.38,9.83c0,1,0,1.84-.08,2.39H504.78a16.66,16.66,0,0,0,3.87,10.11,11.9,11.9,0,0,0,9.62,4.2,16.43,16.43,0,0,0,8.19-1.85,14.36,14.36,0,0,0,5.22-5.14l4.44,3a19.32,19.32,0,0,1-7.15,6.7,21.67,21.67,0,0,1-10.53,2.43,19,19,0,0,1-10-2.63,18.39,18.39,0,0,1-6.82-7.32,22.42,22.42,0,0,1-2.47-10.62,22.87,22.87,0,0,1,2.42-10.61,18.23,18.23,0,0,1,6.75-7.32,18.56,18.56,0,0,1,9.83-2.63A17.73,17.73,0,0,1,527.57,577.31Zm3.37,14.56q-.83-6-4-9t-8.72-3a11.86,11.86,0,0,0-8.76,3.41,15.57,15.57,0,0,0-4.32,8.6Z"/><path class="cls-1" d="M570.55,576.4a13,13,0,0,1,5.43,4.86,14,14,0,0,1,2,7.57v25.74H572.4V591.29q0-11.43-10.2-11.43-5.93,0-8.89,4.19t-3,11.27v19.25h-5.59V576.08h5.59v6.41a14.78,14.78,0,0,1,5.22-5.72,14,14,0,0,1,7.53-2A17,17,0,0,1,570.55,576.4Z"/><path class="cls-1" d="M62.19,657a62.19,62.19,0,1,1,62.18-62.19A62.26,62.26,0,0,1,62.19,657Zm0-121.37a59.19,59.19,0,1,0,59.18,59.18A59.25,59.25,0,0,0,62.19,535.67Z"/><circle class="cls-1" cx="62.19" cy="596.87" r="2.02"/><path class="cls-1" d="M62.19,599.39a2.52,2.52,0,1,1,2.52-2.52A2.52,2.52,0,0,1,62.19,599.39Zm0-4a1.52,1.52,0,1,0,1.52,1.52A1.52,1.52,0,0,0,62.19,595.35Z"/></g></g></svg>