<svg xmlns="http://www.w3.org/2000/svg" viewBox="0 0 577.99 124.37"><defs><style>.cls-1{fill:#fff;}</style></defs><g id="Lag_2" data-name="Lag 2"><g id="Lag_1-2" data-name="Lag 1"><path class="cls-1" d="M71.21,44.73A18.28,18.28,0,0,1,78,52.05,22.65,22.65,0,0,1,80.5,62.74a22.59,22.59,0,0,1-2.42,10.57,18.18,18.18,0,0,1-6.75,7.28,18.45,18.45,0,0,1-9.83,2.63,16.12,16.12,0,0,1-7.69-1.85,16.67,16.67,0,0,1-5.88-5.22V98.36H42.34V43.41h5.59v5.68A17.07,17.07,0,0,1,53.77,44a15.71,15.71,0,0,1,7.57-1.86A18.69,18.69,0,0,1,71.21,44.73Zm-2.8,31.42a13.48,13.48,0,0,0,4.77-5.47,17.72,17.72,0,0,0,1.73-7.94,18.18,18.18,0,0,0-1.73-8.06,13.34,13.34,0,0,0-4.77-5.51,12.39,12.39,0,0,0-6.91-2,12.74,12.74,0,0,0-7,2,13.21,13.21,0,0,0-4.81,5.51,19.27,19.27,0,0,0,0,16,13.27,13.27,0,0,0,4.81,5.51,12.81,12.81,0,0,0,7,2A12.46,12.46,0,0,0,68.41,76.15Z"/><path class="cls-1" d="M88.81,81.91V22.19H94.4V81.91Z"/><path class="cls-1" d="M140.88,43.41v38.5h-5.59V76.23a17.17,17.17,0,0,1-5.84,5.14,15.73,15.73,0,0,1-7.57,1.85A18.64,18.64,0,0,1,112,80.59a18.22,18.22,0,0,1-6.83-7.32,22.56,22.56,0,0,1-2.47-10.69A22.47,22.47,0,0,1,105.14,52a18.16,18.16,0,0,1,6.74-7.28,18.48,18.48,0,0,1,9.83-2.64A16.1,16.1,0,0,1,129.4,44a16.78,16.78,0,0,1,5.89,5.22V43.41ZM128.75,76.15a13.34,13.34,0,0,0,4.81-5.51,19.27,19.27,0,0,0,0-16,13.28,13.28,0,0,0-4.81-5.51,12.75,12.75,0,0,0-7-2,12.41,12.41,0,0,0-6.91,2A13.41,13.41,0,0,0,110,54.64a17.71,17.71,0,0,0-1.72,7.94A18.18,18.18,0,0,0,110,70.64a13.4,13.4,0,0,0,4.77,5.51,12.48,12.48,0,0,0,6.91,2A12.82,12.82,0,0,0,128.75,76.15Z"/><path class="cls-1" d="M187,22.19V81.91h-5.6V76.23a17.07,17.07,0,0,1-5.84,5.14A15.68,15.68,0,0,1,168,83.22a18.69,18.69,0,0,1-9.87-2.63,18.26,18.26,0,0,1-6.82-7.32,22.56,22.56,0,0,1-2.47-10.69A22.59,22.59,0,0,1,151.28,52,18.18,18.18,0,0,1,158,44.73a18.45,18.45,0,0,1,9.83-2.64A16.1,16.1,0,0,1,175.55,44a16.67,16.67,0,0,1,5.88,5.22v-27Zm-12.14,54a13.27,13.27,0,0,0,4.81-5.51,19.27,19.27,0,0,0,0-16,13.21,13.21,0,0,0-4.81-5.51,12.72,12.72,0,0,0-7-2,12.39,12.39,0,0,0-6.91,2,13.41,13.41,0,0,0-4.77,5.47,17.72,17.72,0,0,0-1.73,7.94,18.18,18.18,0,0,0,1.73,8.06A13.4,13.4,0,0,0,161,76.15a12.46,12.46,0,0,0,6.91,2A12.79,12.79,0,0,0,174.89,76.15Z"/><path class="cls-1" d="M223.38,44.64a18,18,0,0,1,6.58,7,20.27,20.27,0,0,1,2.39,9.82c0,1,0,1.84-.08,2.39H200.6a16.68,16.68,0,0,0,3.86,10.12,12,12,0,0,0,9.63,4.19,16.29,16.29,0,0,0,8.18-1.85,14.16,14.16,0,0,0,5.23-5.14l4.44,3a19.38,19.38,0,0,1-7.16,6.71,21.72,21.72,0,0,1-10.53,2.42,18.8,18.8,0,0,1-9.95-2.63,18.28,18.28,0,0,1-6.83-7.32A22.5,22.5,0,0,1,195,62.66a22.69,22.69,0,0,1,2.43-10.61,18.14,18.14,0,0,1,6.74-7.32A18.48,18.48,0,0,1,214,42.09,17.77,17.77,0,0,1,223.38,44.64Zm3.37,14.56q-.81-6-4-9c-2.13-2-5-3-8.72-3a11.86,11.86,0,0,0-8.76,3.42,15.6,15.6,0,0,0-4.31,8.59Z"/><path class="cls-1" d="M287.87,44.73a18.28,18.28,0,0,1,6.83,7.32,22.65,22.65,0,0,1,2.47,10.69,22.47,22.47,0,0,1-2.43,10.57A18.23,18.23,0,0,1,288,80.59a18.47,18.47,0,0,1-9.83,2.63,16.13,16.13,0,0,1-7.7-1.85,16.67,16.67,0,0,1-5.88-5.22V98.36H259V43.41h5.59v5.68A17.07,17.07,0,0,1,270.43,44,15.74,15.74,0,0,1,278,42.09,18.69,18.69,0,0,1,287.87,44.73Zm-2.8,31.42a13.57,13.57,0,0,0,4.78-5.47,17.71,17.71,0,0,0,1.72-7.94,18.18,18.18,0,0,0-1.72-8.06,13.43,13.43,0,0,0-4.78-5.51,12.38,12.38,0,0,0-6.9-2,12.75,12.75,0,0,0-7,2,13.28,13.28,0,0,0-4.81,5.51,19.27,19.27,0,0,0,0,16,13.34,13.34,0,0,0,4.81,5.51,12.82,12.82,0,0,0,7,2A12.45,12.45,0,0,0,285.07,76.15Z"/><path class="cls-1" d="M338.87,43.41v38.5h-5.59V75.49a14.66,14.66,0,0,1-5.23,5.72,14,14,0,0,1-7.52,2,17,17,0,0,1-7.45-1.64,13,13,0,0,1-5.43-4.86,13.92,13.92,0,0,1-2-7.56V43.41h5.59V66.69q0,11.43,10.2,11.43,5.93,0,8.89-4.19t3-11.27V43.41Z"/><path class="cls-1" d="M353,80.84a15.77,15.77,0,0,1-6.46-6.75l5-2.47q3,6.51,11.93,6.5a14.39,14.39,0,0,0,7.07-1.56,5.19,5.19,0,0,0,2.8-4.85,5.8,5.8,0,0,0-2.27-5q-2.26-1.65-7.93-2.14-7.9-.66-11.31-3.54a9.5,9.5,0,0,1-3.42-7.65,9.84,9.84,0,0,1,3.87-8.3q3.86-3,10.61-3,11.43,0,15.55,9l-5,2.47a9.91,9.91,0,0,0-4.07-4.85,13.54,13.54,0,0,0-6.87-1.57,11.48,11.48,0,0,0-6.54,1.57,5.07,5.07,0,0,0-2.26,4.44,5.12,5.12,0,0,0,2.42,4.4q2.43,1.68,8.35,2.18,7.32.66,10.9,3.58a9.43,9.43,0,0,1,3.58,7.69,10.22,10.22,0,0,1-2.22,6.62,13.66,13.66,0,0,1-5.92,4.16,22.46,22.46,0,0,1-8,1.39A19.68,19.68,0,0,1,353,80.84Z"/><path class="cls-1" d="M413.19,43.74a13,13,0,0,1,5.43,4.85,14,14,0,0,1,2,7.57V81.91H415V58.63q0-11.43-10.2-11.44-5.93,0-8.88,4.2t-3,11.27V81.91H387.4V22.19H393V49.83a14.66,14.66,0,0,1,5.23-5.72,14,14,0,0,1,7.52-2A16.91,16.91,0,0,1,413.19,43.74Z"/><path class="cls-1" d="M457.32,44.64a18,18,0,0,1,6.58,7,20.27,20.27,0,0,1,2.39,9.82,23.63,23.63,0,0,1-.09,2.39H434.53a16.68,16.68,0,0,0,3.87,10.12A12,12,0,0,0,448,78.12a16.33,16.33,0,0,0,8.19-1.85,14.13,14.13,0,0,0,5.22-5.14l4.44,3a19.35,19.35,0,0,1-7.15,6.71,21.72,21.72,0,0,1-10.53,2.42,18.8,18.8,0,0,1-9.95-2.63,18.22,18.22,0,0,1-6.83-7.32,22.38,22.38,0,0,1-2.47-10.61,22.69,22.69,0,0,1,2.43-10.61,18,18,0,0,1,6.74-7.32,18.48,18.48,0,0,1,9.83-2.64A17.79,17.79,0,0,1,457.32,44.64Zm3.37,14.56q-.82-6-4-9c-2.14-2-5-3-8.72-3a11.86,11.86,0,0,0-8.76,3.42,15.68,15.68,0,0,0-4.32,8.59Z"/><path class="cls-1" d="M497.21,42.67v5.1a8.64,8.64,0,0,0-3.78-.82,11.9,11.9,0,0,0-6.58,2A14,14,0,0,0,482,54.64a19.63,19.63,0,0,0-1.86,8.84V81.91h-5.59V43.41h5.59v7.73a18.15,18.15,0,0,1,5.64-6.66,13.1,13.1,0,0,1,7.69-2.39A12.45,12.45,0,0,1,497.21,42.67Z"/><path class="cls-1" d="M527.57,44.64a18.06,18.06,0,0,1,6.58,7,20.27,20.27,0,0,1,2.38,9.82c0,1,0,1.84-.08,2.39H504.78a16.68,16.68,0,0,0,3.87,10.12,11.92,11.92,0,0,0,9.62,4.19,16.33,16.33,0,0,0,8.19-1.85,14.21,14.21,0,0,0,5.22-5.14l4.44,3A19.35,19.35,0,0,1,529,80.8a21.78,21.78,0,0,1-10.53,2.42,18.86,18.86,0,0,1-10-2.63,18.26,18.26,0,0,1-6.82-7.32,22.38,22.38,0,0,1-2.47-10.61,22.81,22.81,0,0,1,2.42-10.61,18.1,18.1,0,0,1,6.75-7.32,18.48,18.48,0,0,1,9.83-2.64A17.82,17.82,0,0,1,527.57,44.64Zm3.37,14.56q-.83-6-4-9c-2.14-2-5-3-8.72-3a11.83,11.83,0,0,0-8.76,3.42,15.55,15.55,0,0,0-4.32,8.59Z"/><path class="cls-1" d="M570.55,43.74A13,13,0,0,1,576,48.59a14,14,0,0,1,2,7.57V81.91H572.4V58.63q0-11.43-10.2-11.44-5.93,0-8.89,4.2t-3,11.27V81.91h-5.59V43.41h5.59v6.42a14.71,14.71,0,0,1,5.22-5.72,14,14,0,0,1,7.53-2A16.91,16.91,0,0,1,570.55,43.74Z"/><path class="cls-1" d="M62.19,124.37a62.19,62.19,0,1,1,62.18-62.18A62.25,62.25,0,0,1,62.19,124.37ZM62.19,3a59.19,59.19,0,1,0,59.18,59.19A59.25,59.25,0,0,0,62.19,3Z"/><circle class="cls-1" cx="62.19" cy="64.21" r="2.02"/><path class="cls-1" d="M62.19,66.73a2.52,2.52,0,1,1,2.52-2.52A2.52,2.52,0,0,1,62.19,66.73Zm0-4a1.52,1.52,0,1,0,1.52,1.52A1.52,1.52,0,0,0,62.19,62.69Z"/></g></g></svg>